# xmcd
#
# Track frame offsets:
#	150
#	14963
#	32505
#	52694
#	66570
#	90529
#	112072
#	128147
#	151303
#	172232
#	207767
#	230374
#	252564
#	282146
#	310505
#	331948
#
# Disc length: 4783 seconds
#
# Revision: 2
# Processed by: cddbd v1.5.2PL0 Copyright (c) Steve Scherf et al.
# Submitted via: EZCDAudioConverter 6.0.0.1
#
DISCID=df12ad10
DTITLE=Various Artist - Akella Presents - Modern Electric Blues - vol.13  CD2
DTITLE=New!
DYEAR=2013
DGENRE=Blues
TTITLE0=RUDY ROTTA - Lookin' Good
TTITLE1=GEOFF ACHISON - Little Big Men
TTITLE2=COLIN JAMES - Tin Pan Alley
TTITLE3=CHUCK COLOMBO - My Cat Is a Zen Master
TTITLE4=CHRIS BELL and 100% BLUES - Cold-Hearted Woman
TTITLE5=ALVIN LEE - One Lonely Hour
TTITLE6=MICHAEL POWERS - She's About a Mover
TTITLE7=AL BASILE - Picked To Click
TTITLE8=COCO MONTOYA - Running Away From Love
TTITLE9=HEAVY BLUES CHEVY - The Walk
TTITLE10=BILLY PRICE and FRED CHAPELLIER - My Love Comes Tumbling Down
TTITLE11=KEB' MO' - The Itch
TTITLE12=AMAR SUNDY - This morning
TTITLE13=SONNY BLACK and The DUKES - Blues Walkin' By My Side
TTITLE14=SAVOY BROWN - Round And Round
TTITLE15=MIKE MORGAN and The CRAWL - Cold Wind
EXTD=
EXTT0=
EXTT1=
EXTT2=
EXTT3=
EXTT4=
EXTT5=
EXTT6=
EXTT7=
EXTT8=
EXTT9=
EXTT10=
EXTT11=
EXTT12=
EXTT13=
EXTT14=
EXTT15=
PLAYORDER=
